<svg xmlns="http://www.w3.org/2000/svg" viewBox="0 0 248.07 188.44">
    <defs>
        <style>
            .cls-1 {
                font-size: 8px;
                font-family: VT323-Regular, VT323;
            }

            .cls-1,
            .cls-6,
            .cls-7 {
                fill: #fff;
            }

            .cls-2 {
                fill: #cfecf5;
            }

            .cls-2,
            .cls-3,
            .cls-4,
            .cls-5,
            .cls-6,
            .cls-7 {
                stroke: #231f20;
                stroke-miterlimit: 10;
            }

            .cls-3 {
                fill: #fed5aa;
            }

            .cls-4 {
                fill: #ddebbb;
            }

            .cls-5 {
                fill: #f7f4b6;
            }

            .cls-7 {
                stroke-width: 0.25px;
            }
        </style>
    </defs>
    <g id="code"><text style="font-family: 'VT323', monospace;" class="cls-1"
            transform="translate(55.41 59.16) rotate(32.26)">01001001001010100100101010011101011110101010101</text></g>
    <g id="Layer_1" data-name="Layer 1">
        <rect class="cls-2" x="7.76" y="0.5" width="67.85" height="41.13" />
        <polygon class="cls-3" points="82.71 66.68 0.66 66.68 7.76 41.63 75.61 41.63 82.71 66.68" />
        <rect class="cls-4" x="0.66" y="66.68" width="82.05" height="2.3" />
        <polygon class="cls-5" points="76.71 55.09 6.66 55.09 9.43 44.44 74.15 44.44 76.71 55.09" />
        <polygon class="cls-6" points="51.43 64.63 32.01 64.63 32.72 57.14 50.64 57.14 51.43 64.63" />
        <path class="cls-7" d="M15.67,37.44" transform="translate(-2.99 -32.2)" />
        <rect class="cls-2" x="172.46" y="119.47" width="67.85" height="41.13" />
        <polygon class="cls-3" points="247.41 185.65 165.37 185.65 172.46 160.6 240.31 160.6 247.41 185.65" />
        <rect class="cls-4" x="165.37" y="185.65" width="82.05" height="2.3" />
        <polygon class="cls-5" points="241.41 174.06 171.36 174.06 174.13 163.41 238.85 163.41 241.41 174.06" />
        <polygon class="cls-6" points="216.13 183.6 196.72 183.6 197.43 176.1 215.35 176.1 216.13 183.6" />
        <path class="cls-7" d="M180.37,156.41" transform="translate(-2.99 -32.2)" />
    </g>
</svg>