<svg id="Layer_1" data-name="Layer 1" xmlns="http://www.w3.org/2000/svg" viewBox="0 0 88.15 170.11"><defs><style>.cls-1,.cls-4{fill:none;}.cls-1,.cls-3{stroke:#fff;}.cls-1,.cls-3,.cls-4{stroke-miterlimit:10;}.cls-2,.cls-3{isolation:isolate;}.cls-3{font-size:7px;fill:#231f20;font-family:VT323-Regular, VT323;}.cls-4{stroke:#231f20;}</style></defs><rect class="cls-1" x="0.5" y="0.5" width="87.15" height="169.11" rx="9"/><rect class="cls-1" x="4.07" y="26.33" width="80" height="122.21"/><circle class="cls-1" cx="44.07" cy="159.78" r="8.17"/><path class="cls-1" d="M33,14.93a.85.85,0,0,0,.85.85H54.29a.85.85,0,1,0,0-1.7H33.86A.85.85,0,0,0,33,14.93Z"/><path class="cls-1" d="M39.4,87.44a14,14,0,0,0,14,14H64.63a14,14,0,0,0,0-27.92H53.35a14,14,0,0,0-14,14Z"/><path class="cls-1" d="M9.59,54.4a14,14,0,0,0,14,14H34.83a14,14,0,0,0,0-27.91H23.55a14,14,0,0,0-14,14Z"/><path class="cls-1" d="M9.59,120.48a14,14,0,0,0,14,14H34.83a14,14,0,0,0,0-27.92H23.55a14,14,0,0,0-14,14Z"/><g class="cls-2"><text class="cls-3" transform="translate(12.14 48.12)"><tspan xml:space="preserve">  01000101</tspan></text><text class="cls-3" transform="translate(12.14 56.52)">0101011010</text><text class="cls-3" transform="translate(12.14 64.92)"><tspan xml:space="preserve">  01110011</tspan></text></g><g class="cls-2"><text class="cls-3" transform="translate(42.17 81.31)"><tspan xml:space="preserve">  01000101</tspan></text><text class="cls-3" transform="translate(42.17 89.71)">0101011010</text><text class="cls-3" transform="translate(42.17 98.11)"><tspan xml:space="preserve">  00011101</tspan></text></g><g class="cls-2"><text class="cls-3" transform="translate(12.6 114.33)"><tspan xml:space="preserve">  01000101</tspan></text><text class="cls-3" transform="translate(12.6 122.73)">0101011010</text><text class="cls-3" transform="translate(12.6 131.13)"><tspan xml:space="preserve">  01110011</tspan></text></g><path class="cls-4" d="M40.84,202.1"/></svg>