<svg xmlns="http://www.w3.org/2000/svg" viewBox="0 0 248.07 188.44">
    <defs>
        <style>
            .cls-1,
            .cls-2 {
                font-size: 10px;
                font-family: VT323-Regular, VT323;
            }

            .cls-1,
            .cls-8,
            .cls-9 {
                fill: #fff;
            }

            .cls-2 {
                fill: #ef4136;
            }

            .cls-3 {
                fill: #faee41;
            }

            .cls-4 {
                fill: #cfecf5;
            }

            .cls-10,
            .cls-11,
            .cls-12,
            .cls-4,
            .cls-5,
            .cls-6,
            .cls-7,
            .cls-8,
            .cls-9 {
                stroke: #231f20;
                stroke-miterlimit: 10;
            }

            .cls-5 {
                fill: #fed5aa;
            }

            .cls-6 {
                fill: #ddebbb;
            }

            .cls-7 {
                fill: #f7f4b6;
            }

            .cls-9 {
                stroke-width: 0.25px;
            }

            .cls-10 {
                fill: #89a6d7;
            }

            .cls-11 {
                fill: #99d6d0;
            }

            .cls-12 {
                fill: #fdd0aa;
            }
        </style>
    </defs>
    <g id="code"><text class="cls-1" transform="translate(79.82 55.09)">0<tspan x="4" y="0">1</tspan>
            <tspan x="8" y="0">1</tspan>
            <tspan x="12.01" y="0">1</tspan>
            <tspan x="16.01" y="0">0</tspan>
            <tspan x="20.01" y="0">1</tspan>
            <tspan x="24.02" y="0">1</tspan>
            <tspan x="28.01" y="0">0</tspan>
            <tspan x="32.02" y="0">1</tspan>
            <tspan x="36.04" y="0">0</tspan>
            <tspan x="40.03" y="0">1</tspan>
            <tspan x="44.03" y="0">1</tspan>
            <tspan x="48.03" y="0">1</tspan>
        </text><text class="cls-1" transform="translate(131.36 55.23) rotate(17.24)">0</text><text class="cls-1"
            transform="translate(135.16 56.41) rotate(17.24)">1</text><text class="cls-1"
            transform="translate(138.97 57.59) rotate(17.23)">0</text><text class="cls-1"
            transform="matrix(0.96, 0.3, -0.3, 0.96, 142.81, 58.78)">1</text><text class="cls-1"
            transform="translate(146.64 59.97) rotate(17.24)">1</text><text class="cls-2"
            transform="translate(150.47 61.16) rotate(17.23)">1</text><text class="cls-1"
            transform="matrix(0.96, 0.3, -0.3, 0.96, 154.28, 62.34)">0</text><text class="cls-1"
            transform="translate(158.09 63.52) rotate(17.23)">1</text><text class="cls-1"
            transform="matrix(0.96, 0.3, -0.3, 0.96, 161.91, 64.71)">0</text><text class="cls-1"
            transform="translate(165.74 65.9) rotate(17.24)">1</text><text class="cls-1"
            transform="translate(169.56 67.08) rotate(17.24)">0</text><text class="cls-1"
            transform="translate(173.39 68.27) rotate(17.23)">1</text><text class="cls-1"
            transform="translate(178.68 68.11) rotate(90)">1<tspan x="3.67" y="0">1</tspan>
            <tspan x="7.67" y="0">0</tspan>
            <tspan x="11.68" y="0">1</tspan>
            <tspan x="15.68" y="0">0</tspan>
            <tspan x="19.68" y="0">1</tspan>
            <tspan x="23.68" y="0">0</tspan>
        </text><text class="cls-1" transform="matrix(-0.89, 0.45, -0.45, -0.89, 180.06, 96.03)">1</text><text
            class="cls-1" transform="translate(176.5 97.84) rotate(153)">0</text><text class="cls-1"
            transform="translate(172.92 99.67) rotate(153)">1</text><text class="cls-1"
            transform="translate(169.36 101.48) rotate(153)">0</text><text class="cls-1"
            transform="translate(165.79 103.3) rotate(153)">1</text><text class="cls-1"
            transform="translate(162.23 105.11) rotate(153)">1</text><text class="cls-1"
            transform="translate(158.66 106.93) rotate(153)">0</text><text class="cls-1"
            transform="translate(155.1 108.75) rotate(153)">1</text><text class="cls-1"
            transform="translate(151.54 110.56) rotate(153)">1</text><text class="cls-1"
            transform="translate(147.98 112.38) rotate(153)">0</text><text class="cls-1"
            transform="matrix(-0.89, 0.45, -0.45, -0.89, 144.41, 114.2)">1</text><text class="cls-1"
            transform="translate(140.84 116.01) rotate(153)">0</text><text class="cls-1"
            transform="translate(137.28 117.83) rotate(153)">1</text><text class="cls-1"
            transform="translate(134.07 119.47) rotate(153.01)">1</text><text class="cls-1"
            transform="translate(130.5 120.4) rotate(180)">1<tspan x="4.02" y="0">0</tspan>
            <tspan x="8.01" y="0">1</tspan>
            <tspan x="12.02" y="0">0</tspan>
            <tspan x="16" y="0">1</tspan>
            <tspan x="20.02" y="0">0</tspan>
            <tspan x="24.03" y="0">1</tspan>
            <tspan x="28.03" y="0">0</tspan>
            <tspan x="32.03" y="0">1</tspan>
            <tspan x="36.04" y="0">1</tspan>
            <tspan x="40.02" y="0">0</tspan>
            <tspan x="44.02" y="0">1</tspan>
            <tspan x="48.05" y="0">0</tspan>
        </text><text class="cls-1" transform="matrix(-0.68, 0.73, -0.73, -0.68, 75.53, 121.65)">1</text><text
            class="cls-1" transform="matrix(-0.68, 0.73, -0.73, -0.68, 72.77, 124.59)">1</text><text class="cls-1"
            transform="matrix(-0.68, 0.73, -0.73, -0.68, 70.03, 127.51)">1</text><text class="cls-1"
            transform="translate(67.3 130.42) rotate(133.19)">0</text><text class="cls-1"
            transform="translate(64.55 133.35) rotate(133.18)">1</text><text class="cls-1"
            transform="matrix(-0.68, 0.73, -0.73, -0.68, 61.82, 136.26)">0</text><text class="cls-1"
            transform="translate(59.08 139.18) rotate(133.19)">1</text><text class="cls-1"
            transform="matrix(-0.68, 0.73, -0.73, -0.68, 56.17, 142.27)">0</text><text class="cls-1"
            transform="translate(57.87 149.81) rotate(44.96)">1</text><text class="cls-1"
            transform="translate(60.69 152.63) rotate(44.97)">1</text><text class="cls-1"
            transform="matrix(0.71, 0.71, -0.71, 0.71, 63.54, 155.48)">1</text><text class="cls-1"
            transform="matrix(0.71, 0.71, -0.71, 0.71, 66.36, 158.29)">0</text><text class="cls-1"
            transform="translate(69.18 161.11) rotate(44.97)">1</text><text class="cls-1"
            transform="translate(72.02 163.94) rotate(44.97)">0</text><text class="cls-1"
            transform="translate(77.33 168.63) rotate(0.59)">1</text><text class="cls-1"
            transform="translate(81.39 168.67) rotate(0.6)">1</text><text class="cls-1"
            transform="translate(85.38 168.71) rotate(0.59)">1</text><text class="cls-1"
            transform="matrix(1, 0.01, -0.01, 1, 89.38, 168.76)">0</text><text class="cls-1"
            transform="matrix(1, 0.01, -0.01, 1, 93.4, 168.8)">1</text><text class="cls-1"
            transform="translate(97.41 168.84) rotate(0.6)">0</text><text class="cls-1"
            transform="translate(101.39 168.88) rotate(0.6)">1</text><text class="cls-1"
            transform="translate(105.41 168.92) rotate(0.6)">1</text><text class="cls-1"
            transform="translate(109.4 168.96) rotate(0.6)">1</text><text class="cls-1"
            transform="translate(113.41 169.01) rotate(0.6)">0</text><text class="cls-2"
            transform="translate(117.41 169.05) rotate(0.6)">1</text><text class="cls-1"
            transform="translate(121.39 169.09) rotate(0.6)">0</text><text class="cls-1"
            transform="matrix(1, 0.01, -0.01, 1, 125.41, 169.13)">1</text><text class="cls-1"
            transform="matrix(1, 0.01, -0.01, 1, 129.42, 169.17)">1</text><text class="cls-1"
            transform="translate(133.42 169.21) rotate(0.6)">1</text><text class="cls-1"
            transform="matrix(1, 0.01, -0.01, 1, 137.41, 169.25)">1</text><text class="cls-1"
            transform="matrix(1, 0.01, -0.01, 1, 141.4, 169.3)">0</text><text class="cls-1"
            transform="matrix(1, 0.01, -0.01, 1, 145.41, 169.34)">1</text><text class="cls-1"
            transform="translate(149.42 169.38) rotate(0.6)">0</text><text class="cls-1"
            transform="translate(153.4 169.42) rotate(0.6)">1</text><text class="cls-1"
            transform="translate(157.42 169.46) rotate(0.6)">0</text><text class="cls-1"
            transform="translate(161.41 169.5) rotate(0.6)">1</text><text class="cls-1"
            transform="translate(165.43 169.55) rotate(0.6)">0</text><text class="cls-1"
            transform="translate(169.4 169.59) rotate(0.6)">0</text>
        <path class="cls-3"
            d="M173.51,63.32l-1,0-.91,0-.89,0-.87,0-1,0-.57,0-3.07,4c-4,5.24-4.24,5.55-4.23,5.56l1.71.08,1.45.07.64,0c.05,0,.27-.28-4.35,5.63l-1.74,2.21h.39l1.3,0,.91,0-2.08,3-2.09,3s.07.16.1.14l2.2-1.57L164.6,82l3-2.15a.51.51,0,0,0,0-.1l0-.09h-.66l-3,0s.47-.5,4.66-4.8l3.14-3.23s-1,0-2.12,0h-2.13L168.88,70c6-7.2,5.46-6.55,5.46-6.63v-.07h-.15Z"
            transform="translate(-2.99 -32.2)" />
        <path class="cls-3"
            d="M140.83,172.6l-1-.07-.91-.07-.89-.06-.87-.06-1-.07-.57,0-3.5,3.65-4.84,5s.46.08,1.69.28l1.44.23.63.1c.05,0,.3-.26-5,5.09l-2,2,.39.05,1.28.18.9.13-2.4,2.71c-1.31,1.49-2.4,2.71-2.41,2.72s.06.17.09.16l2.36-1.32,5.56-3.1c1.77-1,3.22-1.8,3.22-1.81s0,0,0-.1v-.09l-.65-.06-3-.3s.52-.44,5.18-4.24c1.91-1.56,3.48-2.85,3.48-2.86l-2.11-.26-2.11-.24,1.56-1.5c6.77-6.47,6.17-5.89,6.18-6v-.07h-.14Z"
            transform="translate(-2.99 -32.2)" />
    </g>
    <g id="Layer_1" data-name="Layer 1">
        <rect class="cls-4" x="7.76" y="0.5" width="67.85" height="41.13" />
        <polygon class="cls-5" points="82.71 66.68 0.66 66.68 7.76 41.63 75.61 41.63 82.71 66.68" />
        <rect class="cls-6" x="0.66" y="66.68" width="82.05" height="2.3" />
        <polygon class="cls-7" points="76.71 55.09 6.66 55.09 9.43 44.44 74.15 44.44 76.71 55.09" />
        <polygon class="cls-8" points="51.43 64.63 32.01 64.63 32.72 57.14 50.64 57.14 51.43 64.63" />
        <path class="cls-9" d="M15.67,37.44" transform="translate(-2.99 -32.2)" />
        <rect class="cls-10" x="172.46" y="119.47" width="67.85" height="41.13" />
        <polygon class="cls-11" points="247.41 185.65 165.37 185.65 172.46 160.6 240.31 160.6 247.41 185.65" />
        <rect class="cls-6" x="165.37" y="185.65" width="82.05" height="2.3" />
        <polygon class="cls-12" points="241.41 174.06 171.36 174.06 174.13 163.41 238.85 163.41 241.41 174.06" />
        <polygon class="cls-8" points="216.13 183.6 196.72 183.6 197.43 176.1 215.35 176.1 216.13 183.6" />
        <path class="cls-9" d="M180.37,156.41" transform="translate(-2.99 -32.2)" />
    </g>
</svg>